<?xml version="1.0" encoding="UTF-8" standalone="no"?>
<!DOCTYPE svg PUBLIC "-//W3C//DTD SVG 1.1//EN"
 "http://www.w3.org/Graphics/SVG/1.1/DTD/svg11.dtd">
<!-- Generated by graphviz version 2.43.0 (0)
 -->
<!-- Title: api.h Pages: 1 -->
<svg width="827pt" height="162pt"
 viewBox="0.00 0.00 826.50 162.00" xmlns="http://www.w3.org/2000/svg" xmlns:xlink="http://www.w3.org/1999/xlink">
<g id="graph0" class="graph" transform="scale(1 1) rotate(0) translate(4 158)">
<title>api.h</title>
<polygon fill="white" stroke="transparent" points="-4,4 -4,-158 822.5,-158 822.5,4 -4,4"/>
<!-- Node1 -->
<g id="node1" class="node">
<title>Node1</title>
<g id="a_node1"><a xlink:title=" ">
<polygon fill="#bfbfbf" stroke="black" points="407,-134.5 407,-153.5 448,-153.5 448,-134.5 407,-134.5"/>
<text text-anchor="middle" x="427.5" y="-141.5" font-family="Helvetica,sans-Serif" font-size="10.00">api.h</text>
</a>
</g>
</g>
<!-- Node2 -->
<g id="node2" class="node">
<title>Node2</title>
<g id="a_node2"><a xlink:href="constellations_8h.html" target="_top" xlink:title=" ">
<polygon fill="white" stroke="black" points="19.5,-73 19.5,-92 113.5,-92 113.5,-73 19.5,-73"/>
<text text-anchor="middle" x="66.5" y="-80" font-family="Helvetica,sans-Serif" font-size="10.00">constellations.h</text>
</a>
</g>
</g>
<!-- Node1&#45;&gt;Node2 -->
<g id="edge1" class="edge">
<title>Node1&#45;&gt;Node2</title>
<path fill="none" stroke="midnightblue" d="M396.8,-139.38C342.03,-132.72 223.99,-117.4 125.5,-98 116.81,-96.29 107.47,-94.14 98.84,-92.02"/>
<polygon fill="midnightblue" stroke="midnightblue" points="396.53,-142.88 406.88,-140.6 397.37,-135.93 396.53,-142.88"/>
</g>
<!-- Node4 -->
<g id="node4" class="node">
<title>Node4</title>
<g id="a_node4"><a xlink:href="gnugym__moving__average__vect__ff_8h.html" target="_top" xlink:title=" ">
<polygon fill="white" stroke="black" points="135,-67.5 135,-97.5 278,-97.5 278,-67.5 135,-67.5"/>
<text text-anchor="start" x="143" y="-85.5" font-family="Helvetica,sans-Serif" font-size="10.00">gnugym_moving_average</text>
<text text-anchor="middle" x="206.5" y="-74.5" font-family="Helvetica,sans-Serif" font-size="10.00">_vect_ff.h</text>
</a>
</g>
</g>
<!-- Node1&#45;&gt;Node4 -->
<g id="edge3" class="edge">
<title>Node1&#45;&gt;Node4</title>
<path fill="none" stroke="midnightblue" d="M396.9,-134.76C361.3,-125.18 301.93,-109.19 258.94,-97.62"/>
<polygon fill="midnightblue" stroke="midnightblue" points="396.14,-138.18 406.71,-137.4 397.96,-131.42 396.14,-138.18"/>
</g>
<!-- Node6 -->
<g id="node6" class="node">
<title>Node6</title>
<g id="a_node6"><a xlink:href="gnugym__parse__seqnr_8h_source.html" target="_top" xlink:title=" ">
<polygon fill="white" stroke="black" points="296,-73 296,-92 425,-92 425,-73 296,-73"/>
<text text-anchor="middle" x="360.5" y="-80" font-family="Helvetica,sans-Serif" font-size="10.00">gnugym_parse_seqnr.h</text>
</a>
</g>
</g>
<!-- Node1&#45;&gt;Node6 -->
<g id="edge5" class="edge">
<title>Node1&#45;&gt;Node6</title>
<path fill="none" stroke="midnightblue" d="M410.21,-127.65C397.44,-116.31 380.52,-101.28 370.08,-92.01"/>
<polygon fill="midnightblue" stroke="midnightblue" points="408.1,-130.45 417.9,-134.48 412.75,-125.22 408.1,-130.45"/>
</g>
<!-- Node7 -->
<g id="node7" class="node">
<title>Node7</title>
<g id="a_node7"><a xlink:href="gnugym__rssi__cb_8h.html" target="_top" xlink:title=" ">
<polygon fill="white" stroke="black" points="443.5,-73 443.5,-92 547.5,-92 547.5,-73 443.5,-73"/>
<text text-anchor="middle" x="495.5" y="-80" font-family="Helvetica,sans-Serif" font-size="10.00">gnugym_rssi_cb.h</text>
</a>
</g>
</g>
<!-- Node1&#45;&gt;Node7 -->
<g id="edge6" class="edge">
<title>Node1&#45;&gt;Node7</title>
<path fill="none" stroke="midnightblue" d="M445.04,-127.65C458.01,-116.31 475.18,-101.28 485.78,-92.01"/>
<polygon fill="midnightblue" stroke="midnightblue" points="442.46,-125.26 437.24,-134.48 447.07,-130.52 442.46,-125.26"/>
</g>
<!-- Node9 -->
<g id="node9" class="node">
<title>Node9</title>
<g id="a_node9"><a xlink:href="gnugym__snr__cb_8h.html" target="_top" xlink:title=" ">
<polygon fill="white" stroke="black" points="565.5,-73 565.5,-92 667.5,-92 667.5,-73 565.5,-73"/>
<text text-anchor="middle" x="616.5" y="-80" font-family="Helvetica,sans-Serif" font-size="10.00">gnugym_snr_cb.h</text>
</a>
</g>
</g>
<!-- Node1&#45;&gt;Node9 -->
<g id="edge8" class="edge">
<title>Node1&#45;&gt;Node9</title>
<path fill="none" stroke="midnightblue" d="M457.64,-133.51C493.92,-122.09 554.31,-103.08 589.25,-92.08"/>
<polygon fill="midnightblue" stroke="midnightblue" points="456.57,-130.18 448.09,-136.52 458.68,-136.85 456.57,-130.18"/>
</g>
<!-- Node11 -->
<g id="node11" class="node">
<title>Node11</title>
<g id="a_node11"><a xlink:href="gnugym__snrdebug__ff_8h_source.html" target="_top" xlink:title=" ">
<polygon fill="white" stroke="black" points="690.5,-73 690.5,-92 818.5,-92 818.5,-73 690.5,-73"/>
<text text-anchor="middle" x="754.5" y="-80" font-family="Helvetica,sans-Serif" font-size="10.00">gnugym_snrdebug_ff.h</text>
</a>
</g>
</g>
<!-- Node1&#45;&gt;Node11 -->
<g id="edge10" class="edge">
<title>Node1&#45;&gt;Node11</title>
<path fill="none" stroke="midnightblue" d="M458.3,-137.48C505.35,-129.05 597.93,-112.4 676.5,-98 686.93,-96.09 698.14,-94.01 708.73,-92.05"/>
<polygon fill="midnightblue" stroke="midnightblue" points="457.39,-134.09 448.17,-139.3 458.63,-140.98 457.39,-134.09"/>
</g>
<!-- Node3 -->
<g id="node3" class="node">
<title>Node3</title>
<g id="a_node3"><a xlink:href="constellations__impl_8h.html" target="_top" xlink:title=" ">
<polygon fill="white" stroke="black" points="0,-6 0,-25 121,-25 121,-6 0,-6"/>
<text text-anchor="middle" x="60.5" y="-13" font-family="Helvetica,sans-Serif" font-size="10.00">constellations_impl.h</text>
</a>
</g>
</g>
<!-- Node2&#45;&gt;Node3 -->
<g id="edge2" class="edge">
<title>Node2&#45;&gt;Node3</title>
<path fill="none" stroke="midnightblue" d="M64.75,-62.54C63.61,-50.17 62.17,-34.62 61.3,-25.13"/>
<polygon fill="midnightblue" stroke="midnightblue" points="61.29,-63.1 65.69,-72.73 68.26,-62.45 61.29,-63.1"/>
</g>
<!-- Node5 -->
<g id="node5" class="node">
<title>Node5</title>
<g id="a_node5"><a xlink:href="gnugym__moving__average__vect__ff__impl_8h.html" target="_top" xlink:title=" ">
<polygon fill="white" stroke="black" points="139,-0.5 139,-30.5 282,-30.5 282,-0.5 139,-0.5"/>
<text text-anchor="start" x="147" y="-18.5" font-family="Helvetica,sans-Serif" font-size="10.00">gnugym_moving_average</text>
<text text-anchor="middle" x="210.5" y="-7.5" font-family="Helvetica,sans-Serif" font-size="10.00">_vect_ff_impl.h</text>
</a>
</g>
</g>
<!-- Node4&#45;&gt;Node5 -->
<g id="edge4" class="edge">
<title>Node4&#45;&gt;Node5</title>
<path fill="none" stroke="midnightblue" d="M207.98,-57.4C208.54,-48.37 209.15,-38.41 209.63,-30.58"/>
<polygon fill="midnightblue" stroke="midnightblue" points="204.49,-57.2 207.37,-67.4 211.48,-57.63 204.49,-57.2"/>
</g>
<!-- Node8 -->
<g id="node8" class="node">
<title>Node8</title>
<g id="a_node8"><a xlink:href="gnugym__rssi__cb__impl_8h.html" target="_top" xlink:title=" ">
<polygon fill="white" stroke="black" points="403,-6 403,-25 534,-25 534,-6 403,-6"/>
<text text-anchor="middle" x="468.5" y="-13" font-family="Helvetica,sans-Serif" font-size="10.00">gnugym_rssi_cb_impl.h</text>
</a>
</g>
</g>
<!-- Node7&#45;&gt;Node8 -->
<g id="edge7" class="edge">
<title>Node7&#45;&gt;Node8</title>
<path fill="none" stroke="midnightblue" d="M487.94,-63.29C482.75,-50.81 476.11,-34.81 472.08,-25.13"/>
<polygon fill="midnightblue" stroke="midnightblue" points="484.79,-64.84 491.86,-72.73 491.25,-62.16 484.79,-64.84"/>
</g>
<!-- Node10 -->
<g id="node10" class="node">
<title>Node10</title>
<g id="a_node10"><a xlink:href="gnugym__snr__cb__impl_8h.html" target="_top" xlink:title=" ">
<polygon fill="white" stroke="black" points="552,-6 552,-25 681,-25 681,-6 552,-6"/>
<text text-anchor="middle" x="616.5" y="-13" font-family="Helvetica,sans-Serif" font-size="10.00">gnugym_snr_cb_impl.h</text>
</a>
</g>
</g>
<!-- Node9&#45;&gt;Node10 -->
<g id="edge9" class="edge">
<title>Node9&#45;&gt;Node10</title>
<path fill="none" stroke="midnightblue" d="M616.5,-62.54C616.5,-50.17 616.5,-34.62 616.5,-25.13"/>
<polygon fill="midnightblue" stroke="midnightblue" points="613,-62.73 616.5,-72.73 620,-62.73 613,-62.73"/>
</g>
<!-- Node12 -->
<g id="node12" class="node">
<title>Node12</title>
<g id="a_node12"><a xlink:href="gnugym__snrdebug__ff__impl_8h_source.html" target="_top" xlink:title=" ">
<polygon fill="white" stroke="black" points="699,-0.5 699,-30.5 818,-30.5 818,-0.5 699,-0.5"/>
<text text-anchor="start" x="707" y="-18.5" font-family="Helvetica,sans-Serif" font-size="10.00">gnugym_snrdebug_ff</text>
<text text-anchor="middle" x="758.5" y="-7.5" font-family="Helvetica,sans-Serif" font-size="10.00">_impl.h</text>
</a>
</g>
</g>
<!-- Node11&#45;&gt;Node12 -->
<g id="edge11" class="edge">
<title>Node11&#45;&gt;Node12</title>
<path fill="none" stroke="midnightblue" d="M755.65,-62.74C756.29,-52.49 757.05,-40 757.63,-30.59"/>
<polygon fill="midnightblue" stroke="midnightblue" points="752.16,-62.54 755.04,-72.73 759.15,-62.97 752.16,-62.54"/>
</g>
</g>
</svg>
