<?xml version="1.0" encoding="UTF-8" standalone="no"?>
<!DOCTYPE svg PUBLIC "-//W3C//DTD SVG 1.1//EN"
 "http://www.w3.org/Graphics/SVG/1.1/DTD/svg11.dtd">
<!-- Generated by graphviz version 2.43.0 (0)
 -->
<!-- Title: base.h Pages: 1 -->
<svg width="829pt" height="95pt"
 viewBox="0.00 0.00 829.00 95.00" xmlns="http://www.w3.org/2000/svg" xmlns:xlink="http://www.w3.org/1999/xlink">
<g id="graph0" class="graph" transform="scale(1 1) rotate(0) translate(4 91)">
<title>base.h</title>
<polygon fill="white" stroke="transparent" points="-4,4 -4,-91 825,-91 825,4 -4,4"/>
<!-- Node1 -->
<g id="node1" class="node">
<title>Node1</title>
<g id="a_node1"><a xlink:title=" ">
<polygon fill="#bfbfbf" stroke="black" points="237,-67.5 237,-86.5 286,-86.5 286,-67.5 237,-67.5"/>
<text text-anchor="middle" x="261.5" y="-74.5" font-family="Helvetica,sans-Serif" font-size="10.00">base.h</text>
</a>
</g>
</g>
<!-- Node2 -->
<g id="node2" class="node">
<title>Node2</title>
<g id="a_node2"><a xlink:href="comb_8h.html" target="_top" xlink:title=" ">
<polygon fill="white" stroke="black" points="0,-6 0,-25 53,-25 53,-6 0,-6"/>
<text text-anchor="middle" x="26.5" y="-13" font-family="Helvetica,sans-Serif" font-size="10.00">comb.h</text>
</a>
</g>
</g>
<!-- Node1&#45;&gt;Node2 -->
<g id="edge1" class="edge">
<title>Node1&#45;&gt;Node2</title>
<path fill="none" stroke="midnightblue" d="M226.92,-69.93C186.87,-62.5 119.14,-48.69 62.5,-31 57.1,-29.31 51.36,-27.17 46.1,-25.06"/>
<polygon fill="midnightblue" stroke="midnightblue" points="226.5,-73.41 236.97,-71.77 227.76,-66.52 226.5,-73.41"/>
</g>
<!-- Node3 -->
<g id="node3" class="node">
<title>Node3</title>
<g id="a_node3"><a xlink:href="lms_8h.html" target="_top" xlink:title=" ">
<polygon fill="white" stroke="black" points="71.5,-6 71.5,-25 115.5,-25 115.5,-6 71.5,-6"/>
<text text-anchor="middle" x="93.5" y="-13" font-family="Helvetica,sans-Serif" font-size="10.00">lms.h</text>
</a>
</g>
</g>
<!-- Node1&#45;&gt;Node3 -->
<g id="edge2" class="edge">
<title>Node1&#45;&gt;Node3</title>
<path fill="none" stroke="midnightblue" d="M227.23,-65.99C199.27,-57.53 158.91,-44.64 124.5,-31 119.97,-29.2 115.16,-27.07 110.72,-25"/>
<polygon fill="midnightblue" stroke="midnightblue" points="226.35,-69.39 236.93,-68.9 228.36,-62.68 226.35,-69.39"/>
</g>
<!-- Node4 -->
<g id="node4" class="node">
<title>Node4</title>
<g id="a_node4"><a xlink:href="ls_8h.html" target="_top" xlink:title=" ">
<polygon fill="white" stroke="black" points="133.5,-6 133.5,-25 167.5,-25 167.5,-6 133.5,-6"/>
<text text-anchor="middle" x="150.5" y="-13" font-family="Helvetica,sans-Serif" font-size="10.00">ls.h</text>
</a>
</g>
</g>
<!-- Node1&#45;&gt;Node4 -->
<g id="edge3" class="edge">
<title>Node1&#45;&gt;Node4</title>
<path fill="none" stroke="midnightblue" d="M235.92,-62.64C219,-53.76 196.37,-41.8 176.5,-31 173.05,-29.12 169.36,-27.08 165.87,-25.14"/>
<polygon fill="midnightblue" stroke="midnightblue" points="234.67,-65.94 245.15,-67.48 237.91,-59.74 234.67,-65.94"/>
</g>
<!-- Node5 -->
<g id="node5" class="node">
<title>Node5</title>
<g id="a_node5"><a xlink:href="sta_8h.html" target="_top" xlink:title=" ">
<polygon fill="white" stroke="black" points="186,-6 186,-25 227,-25 227,-6 186,-6"/>
<text text-anchor="middle" x="206.5" y="-13" font-family="Helvetica,sans-Serif" font-size="10.00">sta.h</text>
</a>
</g>
</g>
<!-- Node1&#45;&gt;Node5 -->
<g id="edge4" class="edge">
<title>Node1&#45;&gt;Node5</title>
<path fill="none" stroke="midnightblue" d="M246.71,-60C236.3,-48.74 222.77,-34.1 214.37,-25.01"/>
<polygon fill="midnightblue" stroke="midnightblue" points="244.26,-62.51 253.62,-67.48 249.4,-57.76 244.26,-62.51"/>
</g>
<!-- Node6 -->
<g id="node6" class="node">
<title>Node6</title>
<g id="a_node6"><a xlink:href="gnugym__moving__average__vect__ff__impl_8h.html" target="_top" xlink:title=" ">
<polygon fill="white" stroke="black" points="245,-0.5 245,-30.5 388,-30.5 388,-0.5 245,-0.5"/>
<text text-anchor="start" x="253" y="-18.5" font-family="Helvetica,sans-Serif" font-size="10.00">gnugym_moving_average</text>
<text text-anchor="middle" x="316.5" y="-7.5" font-family="Helvetica,sans-Serif" font-size="10.00">_vect_ff_impl.h</text>
</a>
</g>
</g>
<!-- Node1&#45;&gt;Node6 -->
<g id="edge5" class="edge">
<title>Node1&#45;&gt;Node6</title>
<path fill="none" stroke="midnightblue" d="M276.21,-60.09C284.72,-50.88 295.34,-39.39 303.54,-30.52"/>
<polygon fill="midnightblue" stroke="midnightblue" points="273.6,-57.76 269.38,-67.48 278.74,-62.51 273.6,-57.76"/>
</g>
<!-- Node7 -->
<g id="node7" class="node">
<title>Node7</title>
<g id="a_node7"><a xlink:href="gnugym__rssi__cb__impl_8h.html" target="_top" xlink:title=" ">
<polygon fill="white" stroke="black" points="406,-6 406,-25 537,-25 537,-6 406,-6"/>
<text text-anchor="middle" x="471.5" y="-13" font-family="Helvetica,sans-Serif" font-size="10.00">gnugym_rssi_cb_impl.h</text>
</a>
</g>
</g>
<!-- Node1&#45;&gt;Node7 -->
<g id="edge6" class="edge">
<title>Node1&#45;&gt;Node7</title>
<path fill="none" stroke="midnightblue" d="M295.69,-66.31C336.13,-54.85 402.84,-35.95 441.41,-25.03"/>
<polygon fill="midnightblue" stroke="midnightblue" points="294.67,-62.96 286,-69.06 296.58,-69.7 294.67,-62.96"/>
</g>
<!-- Node8 -->
<g id="node8" class="node">
<title>Node8</title>
<g id="a_node8"><a xlink:href="gnugym__snr__cb__impl_8h.html" target="_top" xlink:title=" ">
<polygon fill="white" stroke="black" points="555,-6 555,-25 684,-25 684,-6 555,-6"/>
<text text-anchor="middle" x="619.5" y="-13" font-family="Helvetica,sans-Serif" font-size="10.00">gnugym_snr_cb_impl.h</text>
</a>
</g>
</g>
<!-- Node1&#45;&gt;Node8 -->
<g id="edge7" class="edge">
<title>Node1&#45;&gt;Node8</title>
<path fill="none" stroke="midnightblue" d="M296.37,-70.95C350.16,-63.05 456.58,-47.02 546.5,-31 556.68,-29.19 567.62,-27.09 577.86,-25.07"/>
<polygon fill="midnightblue" stroke="midnightblue" points="295.72,-67.5 286.33,-72.42 296.74,-74.43 295.72,-67.5"/>
</g>
<!-- Node9 -->
<g id="node9" class="node">
<title>Node9</title>
<g id="a_node9"><a xlink:href="gnugym__snrdebug__ff__impl_8h_source.html" target="_top" xlink:title=" ">
<polygon fill="white" stroke="black" points="702,-0.5 702,-30.5 821,-30.5 821,-0.5 702,-0.5"/>
<text text-anchor="start" x="710" y="-18.5" font-family="Helvetica,sans-Serif" font-size="10.00">gnugym_snrdebug_ff</text>
<text text-anchor="middle" x="761.5" y="-7.5" font-family="Helvetica,sans-Serif" font-size="10.00">_impl.h</text>
</a>
</g>
</g>
<!-- Node1&#45;&gt;Node9 -->
<g id="edge8" class="edge">
<title>Node1&#45;&gt;Node9</title>
<path fill="none" stroke="midnightblue" d="M296.58,-73.62C370.37,-68.32 546.91,-54.2 693.5,-31 696.24,-30.57 699.04,-30.09 701.86,-29.59"/>
<polygon fill="midnightblue" stroke="midnightblue" points="296.19,-70.14 286.46,-74.33 296.68,-77.12 296.19,-70.14"/>
</g>
</g>
</svg>
