<?xml version="1.0" encoding="UTF-8" standalone="no"?>
<!DOCTYPE svg PUBLIC "-//W3C//DTD SVG 1.1//EN"
 "http://www.w3.org/Graphics/SVG/1.1/DTD/svg11.dtd">
<!-- Generated by graphviz version 2.43.0 (0)
 -->
<!-- Title: pydoc_macros.h Pages: 1 -->
<svg width="1518pt" height="95pt"
 viewBox="0.00 0.00 1518.00 95.00" xmlns="http://www.w3.org/2000/svg" xmlns:xlink="http://www.w3.org/1999/xlink">
<g id="graph0" class="graph" transform="scale(1 1) rotate(0) translate(4 91)">
<title>pydoc_macros.h</title>
<polygon fill="white" stroke="transparent" points="-4,4 -4,-91 1514,-91 1514,4 -4,4"/>
<!-- Node1 -->
<g id="node1" class="node">
<title>Node1</title>
<g id="a_node1"><a xlink:title=" ">
<polygon fill="#bfbfbf" stroke="black" points="764.5,-67.5 764.5,-86.5 860.5,-86.5 860.5,-67.5 764.5,-67.5"/>
<text text-anchor="middle" x="812.5" y="-74.5" font-family="Helvetica,sans-Serif" font-size="10.00">pydoc_macros.h</text>
</a>
</g>
</g>
<!-- Node2 -->
<g id="node2" class="node">
<title>Node2</title>
<g id="a_node2"><a xlink:href="gnugym__moving__average__vect__ff__pydoc_8h.html" target="_top" xlink:title=" ">
<polygon fill="white" stroke="black" points="0,-0.5 0,-30.5 143,-30.5 143,-0.5 0,-0.5"/>
<text text-anchor="start" x="8" y="-18.5" font-family="Helvetica,sans-Serif" font-size="10.00">gnugym_moving_average</text>
<text text-anchor="middle" x="71.5" y="-7.5" font-family="Helvetica,sans-Serif" font-size="10.00">_vect_ff_pydoc.h</text>
</a>
</g>
</g>
<!-- Node1&#45;&gt;Node2 -->
<g id="edge1" class="edge">
<title>Node1&#45;&gt;Node2</title>
<path fill="none" stroke="midnightblue" d="M754.18,-74.21C638.74,-70.19 373.1,-58.54 151.5,-31 148.84,-30.67 146.13,-30.31 143.4,-29.92"/>
<polygon fill="midnightblue" stroke="midnightblue" points="754.11,-77.71 764.22,-74.55 754.35,-70.71 754.11,-77.71"/>
</g>
<!-- Node3 -->
<g id="node3" class="node">
<title>Node3</title>
<g id="a_node3"><a xlink:href="gnugym__parse__seqnr__pydoc_8h_source.html" target="_top" xlink:title=" ">
<polygon fill="white" stroke="black" points="161,-0.5 161,-30.5 282,-30.5 282,-0.5 161,-0.5"/>
<text text-anchor="start" x="169" y="-18.5" font-family="Helvetica,sans-Serif" font-size="10.00">gnugym_parse_seqnr</text>
<text text-anchor="middle" x="221.5" y="-7.5" font-family="Helvetica,sans-Serif" font-size="10.00">_pydoc.h</text>
</a>
</g>
</g>
<!-- Node1&#45;&gt;Node3 -->
<g id="edge2" class="edge">
<title>Node1&#45;&gt;Node3</title>
<path fill="none" stroke="midnightblue" d="M754.26,-73.29C657.54,-68.26 457.85,-55.7 290.5,-31 287.71,-30.59 284.87,-30.13 282.01,-29.65"/>
<polygon fill="midnightblue" stroke="midnightblue" points="754.25,-76.79 764.41,-73.81 754.61,-69.8 754.25,-76.79"/>
</g>
<!-- Node4 -->
<g id="node4" class="node">
<title>Node4</title>
<g id="a_node4"><a xlink:href="gnugym__rssi__cb__pydoc_8h.html" target="_top" xlink:title=" ">
<polygon fill="white" stroke="black" points="300,-6 300,-25 439,-25 439,-6 300,-6"/>
<text text-anchor="middle" x="369.5" y="-13" font-family="Helvetica,sans-Serif" font-size="10.00">gnugym_rssi_cb_pydoc.h</text>
</a>
</g>
</g>
<!-- Node1&#45;&gt;Node4 -->
<g id="edge3" class="edge">
<title>Node1&#45;&gt;Node4</title>
<path fill="none" stroke="midnightblue" d="M754,-69.9C681.78,-62.12 555.3,-47.65 447.5,-31 436.2,-29.26 424.03,-27.12 412.74,-25.03"/>
<polygon fill="midnightblue" stroke="midnightblue" points="753.93,-73.42 764.25,-71 754.68,-66.46 753.93,-73.42"/>
</g>
<!-- Node5 -->
<g id="node5" class="node">
<title>Node5</title>
<g id="a_node5"><a xlink:href="gnugym__snr__cb__pydoc_8h.html" target="_top" xlink:title=" ">
<polygon fill="white" stroke="black" points="457,-6 457,-25 594,-25 594,-6 457,-6"/>
<text text-anchor="middle" x="525.5" y="-13" font-family="Helvetica,sans-Serif" font-size="10.00">gnugym_snr_cb_pydoc.h</text>
</a>
</g>
</g>
<!-- Node1&#45;&gt;Node5 -->
<g id="edge4" class="edge">
<title>Node1&#45;&gt;Node5</title>
<path fill="none" stroke="midnightblue" d="M761.38,-65.4C705.74,-53.87 617.87,-35.65 566.54,-25.01"/>
<polygon fill="midnightblue" stroke="midnightblue" points="760.88,-68.87 771.38,-67.48 762.3,-62.02 760.88,-68.87"/>
</g>
<!-- Node6 -->
<g id="node6" class="node">
<title>Node6</title>
<g id="a_node6"><a xlink:href="gnugym__snrdebug__cb__pydoc_8h_source.html" target="_top" xlink:title=" ">
<polygon fill="white" stroke="black" points="612,-0.5 612,-30.5 735,-30.5 735,-0.5 612,-0.5"/>
<text text-anchor="start" x="620" y="-18.5" font-family="Helvetica,sans-Serif" font-size="10.00">gnugym_snrdebug_cb</text>
<text text-anchor="middle" x="673.5" y="-7.5" font-family="Helvetica,sans-Serif" font-size="10.00">_pydoc.h</text>
</a>
</g>
</g>
<!-- Node1&#45;&gt;Node6 -->
<g id="edge5" class="edge">
<title>Node1&#45;&gt;Node6</title>
<path fill="none" stroke="midnightblue" d="M783.21,-63.46C760.69,-53.82 729.6,-40.51 706.26,-30.52"/>
<polygon fill="midnightblue" stroke="midnightblue" points="782.01,-66.76 792.58,-67.48 784.77,-60.32 782.01,-66.76"/>
</g>
<!-- Node7 -->
<g id="node7" class="node">
<title>Node7</title>
<g id="a_node7"><a xlink:href="gnugym__snrdebug__ff__pydoc_8h_source.html" target="_top" xlink:title=" ">
<polygon fill="white" stroke="black" points="753,-0.5 753,-30.5 872,-30.5 872,-0.5 753,-0.5"/>
<text text-anchor="start" x="761" y="-18.5" font-family="Helvetica,sans-Serif" font-size="10.00">gnugym_snrdebug_ff</text>
<text text-anchor="middle" x="812.5" y="-7.5" font-family="Helvetica,sans-Serif" font-size="10.00">_pydoc.h</text>
</a>
</g>
</g>
<!-- Node1&#45;&gt;Node7 -->
<g id="edge6" class="edge">
<title>Node1&#45;&gt;Node7</title>
<path fill="none" stroke="midnightblue" d="M812.5,-57.23C812.5,-48.59 812.5,-38.5 812.5,-30.52"/>
<polygon fill="midnightblue" stroke="midnightblue" points="809,-57.48 812.5,-67.48 816,-57.48 809,-57.48"/>
</g>
<!-- Node8 -->
<g id="node8" class="node">
<title>Node8</title>
<g id="a_node8"><a xlink:href="moving__average__vect__pydoc_8h.html" target="_top" xlink:title=" ">
<polygon fill="white" stroke="black" points="890,-0.5 890,-30.5 1015,-30.5 1015,-0.5 890,-0.5"/>
<text text-anchor="start" x="898" y="-18.5" font-family="Helvetica,sans-Serif" font-size="10.00">moving_average_vect</text>
<text text-anchor="middle" x="952.5" y="-7.5" font-family="Helvetica,sans-Serif" font-size="10.00">_pydoc.h</text>
</a>
</g>
</g>
<!-- Node1&#45;&gt;Node8 -->
<g id="edge7" class="edge">
<title>Node1&#45;&gt;Node8</title>
<path fill="none" stroke="midnightblue" d="M842,-63.46C864.68,-53.82 896,-40.51 919.5,-30.52"/>
<polygon fill="midnightblue" stroke="midnightblue" points="840.39,-60.34 832.56,-67.48 843.13,-66.78 840.39,-60.34"/>
</g>
<!-- Node9 -->
<g id="node9" class="node">
<title>Node9</title>
<g id="a_node9"><a xlink:href="parse__seqnr__pydoc_8h_source.html" target="_top" xlink:title=" ">
<polygon fill="white" stroke="black" points="1033,-6 1033,-25 1152,-25 1152,-6 1033,-6"/>
<text text-anchor="middle" x="1092.5" y="-13" font-family="Helvetica,sans-Serif" font-size="10.00">parse_seqnr_pydoc.h</text>
</a>
</g>
</g>
<!-- Node1&#45;&gt;Node9 -->
<g id="edge8" class="edge">
<title>Node1&#45;&gt;Node9</title>
<path fill="none" stroke="midnightblue" d="M862.67,-65.36C905.63,-56.25 969.14,-42.78 1024.5,-31 1033.59,-29.07 1043.37,-26.98 1052.59,-25.02"/>
<polygon fill="midnightblue" stroke="midnightblue" points="861.81,-61.97 852.75,-67.47 863.26,-68.82 861.81,-61.97"/>
</g>
<!-- Node10 -->
<g id="node10" class="node">
<title>Node10</title>
<g id="a_node10"><a xlink:href="rssi__cb__pydoc_8h.html" target="_top" xlink:title=" ">
<polygon fill="white" stroke="black" points="1170.5,-6 1170.5,-25 1264.5,-25 1264.5,-6 1170.5,-6"/>
<text text-anchor="middle" x="1217.5" y="-13" font-family="Helvetica,sans-Serif" font-size="10.00">rssi_cb_pydoc.h</text>
</a>
</g>
</g>
<!-- Node1&#45;&gt;Node10 -->
<g id="edge9" class="edge">
<title>Node1&#45;&gt;Node10</title>
<path fill="none" stroke="midnightblue" d="M870.81,-70.73C940.4,-63.93 1060.09,-50.59 1161.5,-31 1169.98,-29.36 1179.08,-27.19 1187.43,-25.02"/>
<polygon fill="midnightblue" stroke="midnightblue" points="870.12,-67.28 860.5,-71.73 870.79,-74.25 870.12,-67.28"/>
</g>
<!-- Node11 -->
<g id="node11" class="node">
<title>Node11</title>
<g id="a_node11"><a xlink:href="snr__cb__pydoc_8h.html" target="_top" xlink:title=" ">
<polygon fill="white" stroke="black" points="1282.5,-6 1282.5,-25 1374.5,-25 1374.5,-6 1282.5,-6"/>
<text text-anchor="middle" x="1328.5" y="-13" font-family="Helvetica,sans-Serif" font-size="10.00">snr_cb_pydoc.h</text>
</a>
</g>
</g>
<!-- Node1&#45;&gt;Node11 -->
<g id="edge10" class="edge">
<title>Node1&#45;&gt;Node11</title>
<path fill="none" stroke="midnightblue" d="M870.66,-73.32C958.5,-68.6 1129.98,-56.75 1273.5,-31 1282.05,-29.47 1291.23,-27.27 1299.58,-25.05"/>
<polygon fill="midnightblue" stroke="midnightblue" points="870.43,-69.83 860.63,-73.85 870.8,-76.82 870.43,-69.83"/>
</g>
<!-- Node12 -->
<g id="node12" class="node">
<title>Node12</title>
<g id="a_node12"><a xlink:href="snrdebug__ff__pydoc_8h_source.html" target="_top" xlink:title=" ">
<polygon fill="white" stroke="black" points="1393,-6 1393,-25 1510,-25 1510,-6 1393,-6"/>
<text text-anchor="middle" x="1451.5" y="-13" font-family="Helvetica,sans-Serif" font-size="10.00">snrdebug_ff_pydoc.h</text>
</a>
</g>
</g>
<!-- Node1&#45;&gt;Node12 -->
<g id="edge11" class="edge">
<title>Node1&#45;&gt;Node12</title>
<path fill="none" stroke="midnightblue" d="M871.13,-73.92C974.9,-69.68 1197.51,-58.04 1383.5,-31 1394.01,-29.47 1405.33,-27.28 1415.66,-25.06"/>
<polygon fill="midnightblue" stroke="midnightblue" points="870.72,-70.44 860.87,-74.33 871,-77.43 870.72,-70.44"/>
</g>
</g>
</svg>
