<?xml version="1.0" encoding="UTF-8" standalone="no"?>
<!DOCTYPE svg PUBLIC "-//W3C//DTD SVG 1.1//EN"
 "http://www.w3.org/Graphics/SVG/1.1/DTD/svg11.dtd">
<!-- Generated by graphviz version 2.43.0 (0)
 -->
<!-- Title: gnugym_moving_average_vect_ff_impl.h Pages: 1 -->
<svg width="591pt" height="218pt"
 viewBox="0.00 0.00 590.50 218.00" xmlns="http://www.w3.org/2000/svg" xmlns:xlink="http://www.w3.org/1999/xlink">
<g id="graph0" class="graph" transform="scale(1 1) rotate(0) translate(4 214)">
<title>gnugym_moving_average_vect_ff_impl.h</title>
<polygon fill="white" stroke="transparent" points="-4,4 -4,-214 586.5,-214 586.5,4 -4,4"/>
<!-- Node1 -->
<g id="node1" class="node">
<title>Node1</title>
<g id="a_node1"><a xlink:title=" ">
<polygon fill="#bfbfbf" stroke="black" points="193,-179.5 193,-209.5 336,-209.5 336,-179.5 193,-179.5"/>
<text text-anchor="start" x="201" y="-197.5" font-family="Helvetica,sans-Serif" font-size="10.00">gnugym_moving_average</text>
<text text-anchor="middle" x="264.5" y="-186.5" font-family="Helvetica,sans-Serif" font-size="10.00">_vect_ff_impl.h</text>
</a>
</g>
</g>
<!-- Node2 -->
<g id="node2" class="node">
<title>Node2</title>
<g id="a_node2"><a xlink:href="gnugym__moving__average__vect__ff_8h.html" target="_top" xlink:title=" ">
<polygon fill="white" stroke="black" points="118,-112.5 118,-142.5 269,-142.5 269,-112.5 118,-112.5"/>
<text text-anchor="start" x="126" y="-130.5" font-family="Helvetica,sans-Serif" font-size="10.00">gnuradio/gnugym/gnugym</text>
<text text-anchor="middle" x="193.5" y="-119.5" font-family="Helvetica,sans-Serif" font-size="10.00">_moving_average_vect_ff.h</text>
</a>
</g>
</g>
<!-- Node1&#45;&gt;Node2 -->
<g id="edge1" class="edge">
<title>Node1&#45;&gt;Node2</title>
<path fill="none" stroke="midnightblue" d="M249.09,-179.4C239.51,-170.62 227.01,-159.18 216.3,-149.37"/>
<polygon fill="midnightblue" stroke="midnightblue" points="218.62,-146.75 208.88,-142.58 213.89,-151.91 218.62,-146.75"/>
</g>
<!-- Node6 -->
<g id="node6" class="node">
<title>Node6</title>
<g id="a_node6"><a xlink:href="base_8h.html" target="_top" xlink:title=" ">
<polygon fill="white" stroke="black" points="287,-118 287,-137 384,-137 384,-118 287,-118"/>
<text text-anchor="middle" x="335.5" y="-125" font-family="Helvetica,sans-Serif" font-size="10.00">equalizer/base.h</text>
</a>
</g>
</g>
<!-- Node1&#45;&gt;Node6 -->
<g id="edge5" class="edge">
<title>Node1&#45;&gt;Node6</title>
<path fill="none" stroke="midnightblue" d="M279.91,-179.4C291.31,-168.96 306.83,-154.75 318.57,-144"/>
<polygon fill="midnightblue" stroke="midnightblue" points="320.99,-146.53 326,-137.19 316.26,-141.37 320.99,-146.53"/>
</g>
<!-- Node3 -->
<g id="node3" class="node">
<title>Node3</title>
<g id="a_node3"><a xlink:href="api_8h.html" target="_top" xlink:title=" ">
<polygon fill="white" stroke="black" points="0,-56.5 0,-75.5 129,-75.5 129,-56.5 0,-56.5"/>
<text text-anchor="middle" x="64.5" y="-63.5" font-family="Helvetica,sans-Serif" font-size="10.00">gnuradio/gnugym/api.h</text>
</a>
</g>
</g>
<!-- Node2&#45;&gt;Node3 -->
<g id="edge2" class="edge">
<title>Node2&#45;&gt;Node3</title>
<path fill="none" stroke="midnightblue" d="M162.93,-112.4C141.57,-102.55 113.28,-89.5 92.52,-79.92"/>
<polygon fill="midnightblue" stroke="midnightblue" points="93.82,-76.67 83.27,-75.66 90.89,-83.02 93.82,-76.67"/>
</g>
<!-- Node5 -->
<g id="node5" class="node">
<title>Node5</title>
<g id="a_node5"><a xlink:title=" ">
<polygon fill="white" stroke="#bfbfbf" points="147.5,-56.5 147.5,-75.5 245.5,-75.5 245.5,-56.5 147.5,-56.5"/>
<text text-anchor="middle" x="196.5" y="-63.5" font-family="Helvetica,sans-Serif" font-size="10.00">gnuradio/block.h</text>
</a>
</g>
</g>
<!-- Node2&#45;&gt;Node5 -->
<g id="edge4" class="edge">
<title>Node2&#45;&gt;Node5</title>
<path fill="none" stroke="midnightblue" d="M194.21,-112.4C194.61,-104.47 195.12,-94.46 195.55,-85.86"/>
<polygon fill="midnightblue" stroke="midnightblue" points="199.06,-85.82 196.06,-75.66 192.06,-85.47 199.06,-85.82"/>
</g>
<!-- Node4 -->
<g id="node4" class="node">
<title>Node4</title>
<g id="a_node4"><a xlink:title=" ">
<polygon fill="white" stroke="#bfbfbf" points="5,-0.5 5,-19.5 124,-19.5 124,-0.5 5,-0.5"/>
<text text-anchor="middle" x="64.5" y="-7.5" font-family="Helvetica,sans-Serif" font-size="10.00">gnuradio/attributes.h</text>
</a>
</g>
</g>
<!-- Node3&#45;&gt;Node4 -->
<g id="edge3" class="edge">
<title>Node3&#45;&gt;Node4</title>
<path fill="none" stroke="midnightblue" d="M64.5,-56.08C64.5,-49.01 64.5,-38.86 64.5,-29.99"/>
<polygon fill="midnightblue" stroke="midnightblue" points="68,-29.75 64.5,-19.75 61,-29.75 68,-29.75"/>
</g>
<!-- Node7 -->
<g id="node7" class="node">
<title>Node7</title>
<g id="a_node7"><a xlink:title=" ">
<polygon fill="white" stroke="#bfbfbf" points="268.5,-56.5 268.5,-75.5 396.5,-75.5 396.5,-56.5 268.5,-56.5"/>
<text text-anchor="middle" x="332.5" y="-63.5" font-family="Helvetica,sans-Serif" font-size="10.00">gnuradio/gr_complex.h</text>
</a>
</g>
</g>
<!-- Node6&#45;&gt;Node7 -->
<g id="edge6" class="edge">
<title>Node6&#45;&gt;Node7</title>
<path fill="none" stroke="midnightblue" d="M335.07,-117.98C334.65,-109.58 333.99,-96.48 333.44,-85.66"/>
<polygon fill="midnightblue" stroke="midnightblue" points="336.93,-85.32 332.93,-75.51 329.94,-85.67 336.93,-85.32"/>
</g>
<!-- Node8 -->
<g id="node8" class="node">
<title>Node8</title>
<g id="a_node8"><a xlink:title=" ">
<polygon fill="white" stroke="#bfbfbf" points="414.5,-56.5 414.5,-75.5 582.5,-75.5 582.5,-56.5 414.5,-56.5"/>
<text text-anchor="middle" x="498.5" y="-63.5" font-family="Helvetica,sans-Serif" font-size="10.00">gnuradio/digital/constellation.h</text>
</a>
</g>
</g>
<!-- Node6&#45;&gt;Node8 -->
<g id="edge7" class="edge">
<title>Node6&#45;&gt;Node8</title>
<path fill="none" stroke="midnightblue" d="M358.85,-117.98C386.81,-107.77 433.83,-90.61 465.49,-79.05"/>
<polygon fill="midnightblue" stroke="midnightblue" points="467,-82.23 475.19,-75.51 464.6,-75.65 467,-82.23"/>
</g>
</g>
</svg>
