<?xml version="1.0" encoding="UTF-8" standalone="no"?>
<!DOCTYPE svg PUBLIC "-//W3C//DTD SVG 1.1//EN"
 "http://www.w3.org/Graphics/SVG/1.1/DTD/svg11.dtd">
<!-- Generated by graphviz version 2.43.0 (0)
 -->
<!-- Title: Graphical Class Hierarchy Pages: 1 -->
<svg width="507pt" height="186pt"
 viewBox="0.00 0.00 507.00 186.00" xmlns="http://www.w3.org/2000/svg" xmlns:xlink="http://www.w3.org/1999/xlink">
<g id="graph0" class="graph" transform="scale(1 1) rotate(0) translate(4 182)">
<title>Graphical Class Hierarchy</title>
<polygon fill="white" stroke="transparent" points="-4,4 -4,-182 503,-182 503,4 -4,4"/>
<!-- Node13 -->
<g id="node1" class="node">
<title>Node13</title>
<g id="a_node1"><a xlink:title=" ">
<polygon fill="white" stroke="#bfbfbf" points="0,-78 0,-97 116,-97 116,-78 0,-78"/>
<text text-anchor="middle" x="58" y="-85" font-family="Helvetica,sans-Serif" font-size="10.00">digital::constellation</text>
</a>
</g>
</g>
<!-- Node0 -->
<g id="node2" class="node">
<title>Node0</title>
<g id="a_node2"><a xlink:href="classgr_1_1gnugym_1_1constellation__16qam.html" target="_top" xlink:title=" ">
<polygon fill="white" stroke="black" points="166.5,-146.5 166.5,-176.5 307.5,-176.5 307.5,-146.5 166.5,-146.5"/>
<text text-anchor="start" x="174.5" y="-164.5" font-family="Helvetica,sans-Serif" font-size="10.00">gr::gnugym::constellation</text>
<text text-anchor="middle" x="237" y="-153.5" font-family="Helvetica,sans-Serif" font-size="10.00">_16qam</text>
</a>
</g>
</g>
<!-- Node13&#45;&gt;Node0 -->
<g id="edge1" class="edge">
<title>Node13&#45;&gt;Node0</title>
<path fill="none" stroke="midnightblue" d="M83.87,-102.32C102.25,-112.84 128.11,-126.76 152,-136.5 160.88,-140.12 170.47,-143.47 179.89,-146.47"/>
<polygon fill="midnightblue" stroke="midnightblue" points="85.41,-99.16 75,-97.17 81.89,-105.22 85.41,-99.16"/>
</g>
<!-- Node16 -->
<g id="node4" class="node">
<title>Node16</title>
<g id="a_node4"><a xlink:href="classgr_1_1gnugym_1_1constellation__64qam.html" target="_top" xlink:title=" ">
<polygon fill="white" stroke="black" points="166.5,-96.5 166.5,-126.5 307.5,-126.5 307.5,-96.5 166.5,-96.5"/>
<text text-anchor="start" x="174.5" y="-114.5" font-family="Helvetica,sans-Serif" font-size="10.00">gr::gnugym::constellation</text>
<text text-anchor="middle" x="237" y="-103.5" font-family="Helvetica,sans-Serif" font-size="10.00">_64qam</text>
</a>
</g>
</g>
<!-- Node13&#45;&gt;Node16 -->
<g id="edge3" class="edge">
<title>Node13&#45;&gt;Node16</title>
<path fill="none" stroke="midnightblue" d="M126.74,-96.69C139.75,-98.45 153.4,-100.3 166.46,-102.07"/>
<polygon fill="midnightblue" stroke="midnightblue" points="126.85,-93.17 116.47,-95.29 125.91,-100.1 126.85,-93.17"/>
</g>
<!-- Node18 -->
<g id="node6" class="node">
<title>Node18</title>
<g id="a_node6"><a xlink:href="classgr_1_1gnugym_1_1constellation__bpsk.html" target="_top" xlink:title=" ">
<polygon fill="white" stroke="black" points="152,-56 152,-75 322,-75 322,-56 152,-56"/>
<text text-anchor="middle" x="237" y="-63" font-family="Helvetica,sans-Serif" font-size="10.00">gr::gnugym::constellation_bpsk</text>
</a>
</g>
</g>
<!-- Node13&#45;&gt;Node18 -->
<g id="edge5" class="edge">
<title>Node13&#45;&gt;Node18</title>
<path fill="none" stroke="midnightblue" d="M126.62,-79.1C137.37,-77.76 148.56,-76.37 159.5,-75.01"/>
<polygon fill="midnightblue" stroke="midnightblue" points="125.96,-75.65 116.47,-80.36 126.82,-82.6 125.96,-75.65"/>
</g>
<!-- Node20 -->
<g id="node8" class="node">
<title>Node20</title>
<g id="a_node8"><a xlink:href="classgr_1_1gnugym_1_1constellation__qpsk.html" target="_top" xlink:title=" ">
<polygon fill="white" stroke="black" points="152,-13 152,-32 322,-32 322,-13 152,-13"/>
<text text-anchor="middle" x="237" y="-20" font-family="Helvetica,sans-Serif" font-size="10.00">gr::gnugym::constellation_qpsk</text>
</a>
</g>
</g>
<!-- Node13&#45;&gt;Node20 -->
<g id="edge7" class="edge">
<title>Node13&#45;&gt;Node20</title>
<path fill="none" stroke="midnightblue" d="M88.06,-73.46C106.19,-65.01 130.16,-54.39 152,-46.5 166.98,-41.09 183.8,-36.08 198.43,-32.05"/>
<polygon fill="midnightblue" stroke="midnightblue" points="86.19,-70.47 78.63,-77.9 89.17,-76.8 86.19,-70.47"/>
</g>
<!-- Node1 -->
<g id="node3" class="node">
<title>Node1</title>
<g id="a_node3"><a xlink:href="classgr_1_1gnugym_1_1constellation__16qam__impl.html" target="_top" xlink:title=" ">
<polygon fill="white" stroke="black" points="358,-147.5 358,-177.5 499,-177.5 499,-147.5 358,-147.5"/>
<text text-anchor="start" x="366" y="-165.5" font-family="Helvetica,sans-Serif" font-size="10.00">gr::gnugym::constellation</text>
<text text-anchor="middle" x="428.5" y="-154.5" font-family="Helvetica,sans-Serif" font-size="10.00">_16qam_impl</text>
</a>
</g>
</g>
<!-- Node0&#45;&gt;Node1 -->
<g id="edge2" class="edge">
<title>Node0&#45;&gt;Node1</title>
<path fill="none" stroke="midnightblue" d="M317.84,-161.92C331.15,-161.99 344.86,-162.06 357.89,-162.13"/>
<polygon fill="midnightblue" stroke="midnightblue" points="317.77,-158.42 307.76,-161.87 317.74,-165.42 317.77,-158.42"/>
</g>
<!-- Node17 -->
<g id="node5" class="node">
<title>Node17</title>
<g id="a_node5"><a xlink:href="classgr_1_1gnugym_1_1constellation__64qam__impl.html" target="_top" xlink:title=" ">
<polygon fill="white" stroke="black" points="358,-98.5 358,-128.5 499,-128.5 499,-98.5 358,-98.5"/>
<text text-anchor="start" x="366" y="-116.5" font-family="Helvetica,sans-Serif" font-size="10.00">gr::gnugym::constellation</text>
<text text-anchor="middle" x="428.5" y="-105.5" font-family="Helvetica,sans-Serif" font-size="10.00">_64qam_impl</text>
</a>
</g>
</g>
<!-- Node16&#45;&gt;Node17 -->
<g id="edge4" class="edge">
<title>Node16&#45;&gt;Node17</title>
<path fill="none" stroke="midnightblue" d="M317.84,-112.34C331.15,-112.48 344.86,-112.63 357.89,-112.77"/>
<polygon fill="midnightblue" stroke="midnightblue" points="317.79,-108.84 307.76,-112.24 317.72,-115.84 317.79,-108.84"/>
</g>
<!-- Node19 -->
<g id="node7" class="node">
<title>Node19</title>
<g id="a_node7"><a xlink:href="classgr_1_1gnugym_1_1constellation__bpsk__impl.html" target="_top" xlink:title=" ">
<polygon fill="white" stroke="black" points="358,-49.5 358,-79.5 499,-79.5 499,-49.5 358,-49.5"/>
<text text-anchor="start" x="366" y="-67.5" font-family="Helvetica,sans-Serif" font-size="10.00">gr::gnugym::constellation</text>
<text text-anchor="middle" x="428.5" y="-56.5" font-family="Helvetica,sans-Serif" font-size="10.00">_bpsk_impl</text>
</a>
</g>
</g>
<!-- Node18&#45;&gt;Node19 -->
<g id="edge6" class="edge">
<title>Node18&#45;&gt;Node19</title>
<path fill="none" stroke="midnightblue" d="M332.27,-65C340.84,-64.96 349.42,-64.91 357.72,-64.87"/>
<polygon fill="midnightblue" stroke="midnightblue" points="332.2,-61.5 322.22,-65.06 332.24,-68.5 332.2,-61.5"/>
</g>
<!-- Node21 -->
<g id="node9" class="node">
<title>Node21</title>
<g id="a_node9"><a xlink:href="classgr_1_1gnugym_1_1constellation__qpsk__impl.html" target="_top" xlink:title=" ">
<polygon fill="white" stroke="black" points="358,-0.5 358,-30.5 499,-30.5 499,-0.5 358,-0.5"/>
<text text-anchor="start" x="366" y="-18.5" font-family="Helvetica,sans-Serif" font-size="10.00">gr::gnugym::constellation</text>
<text text-anchor="middle" x="428.5" y="-7.5" font-family="Helvetica,sans-Serif" font-size="10.00">_qpsk_impl</text>
</a>
</g>
</g>
<!-- Node20&#45;&gt;Node21 -->
<g id="edge8" class="edge">
<title>Node20&#45;&gt;Node21</title>
<path fill="none" stroke="midnightblue" d="M332.27,-19.02C340.84,-18.7 349.42,-18.38 357.72,-18.08"/>
<polygon fill="midnightblue" stroke="midnightblue" points="332.08,-15.52 322.22,-19.39 332.34,-22.52 332.08,-15.52"/>
</g>
</g>
</svg>
