<?xml version="1.0" encoding="UTF-8" standalone="no"?>
<!DOCTYPE svg PUBLIC "-//W3C//DTD SVG 1.1//EN"
 "http://www.w3.org/Graphics/SVG/1.1/DTD/svg11.dtd">
<!-- Generated by graphviz version 2.43.0 (0)
 -->
<!-- Title: Graphical Class Hierarchy Pages: 1 -->
<svg width="314pt" height="154pt"
 viewBox="0.00 0.00 314.00 153.50" xmlns="http://www.w3.org/2000/svg" xmlns:xlink="http://www.w3.org/1999/xlink">
<g id="graph0" class="graph" transform="scale(1 1) rotate(0) translate(4 149.5)">
<title>Graphical Class Hierarchy</title>
<polygon fill="white" stroke="transparent" points="-4,4 -4,-149.5 310,-149.5 310,4 -4,4"/>
<!-- Node0 -->
<g id="node1" class="node">
<title>Node0</title>
<g id="a_node1"><a xlink:href="classgr_1_1gnugym_1_1equalizer_1_1base.html" target="_top" xlink:title=" ">
<polygon fill="white" stroke="black" points="0,-52 0,-82 123,-82 123,-52 0,-52"/>
<text text-anchor="start" x="8" y="-70" font-family="Helvetica,sans-Serif" font-size="10.00">gr::gnugym::equalizer</text>
<text text-anchor="middle" x="61.5" y="-59" font-family="Helvetica,sans-Serif" font-size="10.00">::base</text>
</a>
</g>
</g>
<!-- Node1 -->
<g id="node2" class="node">
<title>Node1</title>
<g id="a_node2"><a xlink:href="classgr_1_1gnugym_1_1equalizer_1_1comb.html" target="_top" xlink:title=" ">
<polygon fill="white" stroke="black" points="171,-115 171,-145 294,-145 294,-115 171,-115"/>
<text text-anchor="start" x="179" y="-133" font-family="Helvetica,sans-Serif" font-size="10.00">gr::gnugym::equalizer</text>
<text text-anchor="middle" x="232.5" y="-122" font-family="Helvetica,sans-Serif" font-size="10.00">::comb</text>
</a>
</g>
</g>
<!-- Node0&#45;&gt;Node1 -->
<g id="edge1" class="edge">
<title>Node0&#45;&gt;Node1</title>
<path fill="none" stroke="midnightblue" d="M109.43,-85.95C125.14,-92.17 142.77,-99.01 159,-105 167.99,-108.32 177.66,-111.75 186.92,-114.96"/>
<polygon fill="midnightblue" stroke="midnightblue" points="110.52,-82.62 99.93,-82.17 107.93,-89.12 110.52,-82.62"/>
</g>
<!-- Node2 -->
<g id="node3" class="node">
<title>Node2</title>
<g id="a_node3"><a xlink:href="classgr_1_1gnugym_1_1equalizer_1_1lms.html" target="_top" xlink:title=" ">
<polygon fill="white" stroke="black" points="159,-76.5 159,-95.5 306,-95.5 306,-76.5 159,-76.5"/>
<text text-anchor="middle" x="232.5" y="-83.5" font-family="Helvetica,sans-Serif" font-size="10.00">gr::gnugym::equalizer::lms</text>
</a>
</g>
</g>
<!-- Node0&#45;&gt;Node2 -->
<g id="edge2" class="edge">
<title>Node0&#45;&gt;Node2</title>
<path fill="none" stroke="midnightblue" d="M133,-74.93C141.58,-75.89 150.37,-76.88 158.98,-77.85"/>
<polygon fill="midnightblue" stroke="midnightblue" points="133.36,-71.44 123.04,-73.81 132.58,-78.4 133.36,-71.44"/>
</g>
<!-- Node3 -->
<g id="node4" class="node">
<title>Node3</title>
<g id="a_node4"><a xlink:href="classgr_1_1gnugym_1_1equalizer_1_1ls.html" target="_top" xlink:title=" ">
<polygon fill="white" stroke="black" points="164,-38.5 164,-57.5 301,-57.5 301,-38.5 164,-38.5"/>
<text text-anchor="middle" x="232.5" y="-45.5" font-family="Helvetica,sans-Serif" font-size="10.00">gr::gnugym::equalizer::ls</text>
</a>
</g>
</g>
<!-- Node0&#45;&gt;Node3 -->
<g id="edge3" class="edge">
<title>Node0&#45;&gt;Node3</title>
<path fill="none" stroke="midnightblue" d="M133.12,-59.06C143.32,-57.91 153.79,-56.74 163.93,-55.6"/>
<polygon fill="midnightblue" stroke="midnightblue" points="132.58,-55.6 123.04,-60.19 133.36,-62.56 132.58,-55.6"/>
</g>
<!-- Node4 -->
<g id="node5" class="node">
<title>Node4</title>
<g id="a_node5"><a xlink:href="classgr_1_1gnugym_1_1equalizer_1_1sta.html" target="_top" xlink:title=" ">
<polygon fill="white" stroke="black" points="160.5,-0.5 160.5,-19.5 304.5,-19.5 304.5,-0.5 160.5,-0.5"/>
<text text-anchor="middle" x="232.5" y="-7.5" font-family="Helvetica,sans-Serif" font-size="10.00">gr::gnugym::equalizer::sta</text>
</a>
</g>
</g>
<!-- Node0&#45;&gt;Node4 -->
<g id="edge4" class="edge">
<title>Node0&#45;&gt;Node4</title>
<path fill="none" stroke="midnightblue" d="M107.57,-47.97C123.65,-41.52 141.99,-34.56 159,-29 169.51,-25.57 181.04,-22.32 191.74,-19.51"/>
<polygon fill="midnightblue" stroke="midnightblue" points="105.83,-44.9 97.88,-51.9 108.46,-51.39 105.83,-44.9"/>
</g>
</g>
</svg>
