<?xml version="1.0" encoding="UTF-8" standalone="no"?>
<!DOCTYPE svg PUBLIC "-//W3C//DTD SVG 1.1//EN"
 "http://www.w3.org/Graphics/SVG/1.1/DTD/svg11.dtd">
<!-- Generated by graphviz version 2.43.0 (0)
 -->
<!-- Title: Graphical Class Hierarchy Pages: 1 -->
<svg width="411pt" height="149pt"
 viewBox="0.00 0.00 411.00 148.50" xmlns="http://www.w3.org/2000/svg" xmlns:xlink="http://www.w3.org/1999/xlink">
<g id="graph0" class="graph" transform="scale(1 1) rotate(0) translate(4 144.5)">
<title>Graphical Class Hierarchy</title>
<polygon fill="white" stroke="transparent" points="-4,4 -4,-144.5 407,-144.5 407,4 -4,4"/>
<!-- Node6 -->
<g id="node1" class="node">
<title>Node6</title>
<g id="a_node1"><a xlink:title=" ">
<polygon fill="white" stroke="#bfbfbf" points="0,-55 0,-74 59,-74 59,-55 0,-55"/>
<text text-anchor="middle" x="29.5" y="-62" font-family="Helvetica,sans-Serif" font-size="10.00">gr::block</text>
</a>
</g>
</g>
<!-- Node0 -->
<g id="node2" class="node">
<title>Node0</title>
<g id="a_node2"><a xlink:href="classgr_1_1gnugym_1_1gnugym__moving__average__vect__ff.html" target="_top" xlink:title="&lt;+description of block+&gt;">
<polygon fill="white" stroke="black" points="95,-101.5 95,-131.5 237,-131.5 237,-101.5 95,-101.5"/>
<text text-anchor="start" x="103" y="-119.5" font-family="Helvetica,sans-Serif" font-size="10.00">gr::gnugym::gnugym</text>
<text text-anchor="middle" x="166" y="-108.5" font-family="Helvetica,sans-Serif" font-size="10.00">_moving_average_vect_ff</text>
</a>
</g>
</g>
<!-- Node6&#45;&gt;Node0 -->
<g id="edge1" class="edge">
<title>Node6&#45;&gt;Node0</title>
<path fill="none" stroke="midnightblue" d="M64.47,-77.68C74.32,-81.5 85.09,-85.67 95,-89.5 104.96,-93.35 115.72,-97.51 125.75,-101.37"/>
<polygon fill="midnightblue" stroke="midnightblue" points="65.59,-74.36 55,-74.01 63.06,-80.88 65.59,-74.36"/>
</g>
<!-- Node9 -->
<g id="node4" class="node">
<title>Node9</title>
<g id="a_node4"><a xlink:href="classgr_1_1gnugym_1_1gnugym__rssi__cb.html" target="_top" xlink:title="&lt;+description of block+&gt;">
<polygon fill="white" stroke="black" points="107,-49.5 107,-79.5 225,-79.5 225,-49.5 107,-49.5"/>
<text text-anchor="start" x="115" y="-67.5" font-family="Helvetica,sans-Serif" font-size="10.00">gr::gnugym::gnugym</text>
<text text-anchor="middle" x="166" y="-56.5" font-family="Helvetica,sans-Serif" font-size="10.00">_rssi_cb</text>
</a>
</g>
</g>
<!-- Node6&#45;&gt;Node9 -->
<g id="edge3" class="edge">
<title>Node6&#45;&gt;Node9</title>
<path fill="none" stroke="midnightblue" d="M69.34,-64.5C81.06,-64.5 94.2,-64.5 106.89,-64.5"/>
<polygon fill="midnightblue" stroke="midnightblue" points="69.02,-61 59.02,-64.5 69.02,-68 69.02,-61"/>
</g>
<!-- Node11 -->
<g id="node6" class="node">
<title>Node11</title>
<g id="a_node6"><a xlink:href="classgr_1_1gnugym_1_1gnugym__snr__cb.html" target="_top" xlink:title="&lt;+description of block+&gt;">
<polygon fill="white" stroke="black" points="107,-0.5 107,-30.5 225,-30.5 225,-0.5 107,-0.5"/>
<text text-anchor="start" x="115" y="-18.5" font-family="Helvetica,sans-Serif" font-size="10.00">gr::gnugym::gnugym</text>
<text text-anchor="middle" x="166" y="-7.5" font-family="Helvetica,sans-Serif" font-size="10.00">_snr_cb</text>
</a>
</g>
</g>
<!-- Node6&#45;&gt;Node11 -->
<g id="edge5" class="edge">
<title>Node6&#45;&gt;Node11</title>
<path fill="none" stroke="midnightblue" d="M64.13,-51.18C74.04,-47.33 84.93,-43.18 95,-39.5 103.09,-36.55 111.73,-33.5 120.1,-30.6"/>
<polygon fill="midnightblue" stroke="midnightblue" points="62.65,-48 54.61,-54.89 65.2,-54.52 62.65,-48"/>
</g>
<!-- Node1 -->
<g id="node3" class="node">
<title>Node1</title>
<g id="a_node3"><a xlink:href="classgr_1_1gnugym_1_1gnugym__moving__average__vect__ff__impl.html" target="_top" xlink:title=" ">
<polygon fill="white" stroke="black" points="273,-99 273,-140 403,-140 403,-99 273,-99"/>
<text text-anchor="start" x="281" y="-128" font-family="Helvetica,sans-Serif" font-size="10.00">gr::gnugym::gnugym</text>
<text text-anchor="start" x="281" y="-117" font-family="Helvetica,sans-Serif" font-size="10.00">_moving_average_vect</text>
<text text-anchor="middle" x="338" y="-106" font-family="Helvetica,sans-Serif" font-size="10.00">_ff_impl</text>
</a>
</g>
</g>
<!-- Node0&#45;&gt;Node1 -->
<g id="edge2" class="edge">
<title>Node0&#45;&gt;Node1</title>
<path fill="none" stroke="midnightblue" d="M247.15,-117.91C255.74,-118.07 264.39,-118.22 272.76,-118.37"/>
<polygon fill="midnightblue" stroke="midnightblue" points="247.19,-114.41 237.13,-117.74 247.06,-121.41 247.19,-114.41"/>
</g>
<!-- Node10 -->
<g id="node5" class="node">
<title>Node10</title>
<g id="a_node5"><a xlink:href="classgr_1_1gnugym_1_1gnugym__rssi__cb__impl.html" target="_top" xlink:title=" ">
<polygon fill="white" stroke="black" points="279,-49.5 279,-79.5 397,-79.5 397,-49.5 279,-49.5"/>
<text text-anchor="start" x="287" y="-67.5" font-family="Helvetica,sans-Serif" font-size="10.00">gr::gnugym::gnugym</text>
<text text-anchor="middle" x="338" y="-56.5" font-family="Helvetica,sans-Serif" font-size="10.00">_rssi_cb_impl</text>
</a>
</g>
</g>
<!-- Node9&#45;&gt;Node10 -->
<g id="edge4" class="edge">
<title>Node9&#45;&gt;Node10</title>
<path fill="none" stroke="midnightblue" d="M235.4,-64.5C249.83,-64.5 264.93,-64.5 278.94,-64.5"/>
<polygon fill="midnightblue" stroke="midnightblue" points="235.03,-61 225.03,-64.5 235.03,-68 235.03,-61"/>
</g>
<!-- Node12 -->
<g id="node7" class="node">
<title>Node12</title>
<g id="a_node7"><a xlink:href="classgr_1_1gnugym_1_1gnugym__snr__cb__impl.html" target="_top" xlink:title=" ">
<polygon fill="white" stroke="black" points="279,-0.5 279,-30.5 397,-30.5 397,-0.5 279,-0.5"/>
<text text-anchor="start" x="287" y="-18.5" font-family="Helvetica,sans-Serif" font-size="10.00">gr::gnugym::gnugym</text>
<text text-anchor="middle" x="338" y="-7.5" font-family="Helvetica,sans-Serif" font-size="10.00">_snr_cb_impl</text>
</a>
</g>
</g>
<!-- Node11&#45;&gt;Node12 -->
<g id="edge6" class="edge">
<title>Node11&#45;&gt;Node12</title>
<path fill="none" stroke="midnightblue" d="M235.4,-15.5C249.83,-15.5 264.93,-15.5 278.94,-15.5"/>
<polygon fill="midnightblue" stroke="midnightblue" points="235.03,-12 225.03,-15.5 235.03,-19 235.03,-12"/>
</g>
</g>
</svg>
