<?xml version="1.0" encoding="UTF-8" standalone="no"?>
<!DOCTYPE svg PUBLIC "-//W3C//DTD SVG 1.1//EN"
 "http://www.w3.org/Graphics/SVG/1.1/DTD/svg11.dtd">
<!-- Generated by graphviz version 2.43.0 (0)
 -->
<!-- Title: gnugym_snrdebug_ff_impl.h Pages: 1 -->
<svg width="590pt" height="218pt"
 viewBox="0.00 0.00 589.50 218.00" xmlns="http://www.w3.org/2000/svg" xmlns:xlink="http://www.w3.org/1999/xlink">
<g id="graph0" class="graph" transform="scale(1 1) rotate(0) translate(4 214)">
<title>gnugym_snrdebug_ff_impl.h</title>
<polygon fill="white" stroke="transparent" points="-4,4 -4,-214 585.5,-214 585.5,4 -4,4"/>
<!-- Node1 -->
<g id="node1" class="node">
<title>Node1</title>
<g id="a_node1"><a xlink:title=" ">
<polygon fill="#bfbfbf" stroke="black" points="204,-179.5 204,-209.5 323,-209.5 323,-179.5 204,-179.5"/>
<text text-anchor="start" x="212" y="-197.5" font-family="Helvetica,sans-Serif" font-size="10.00">gnugym_snrdebug_ff</text>
<text text-anchor="middle" x="263.5" y="-186.5" font-family="Helvetica,sans-Serif" font-size="10.00">_impl.h</text>
</a>
</g>
</g>
<!-- Node2 -->
<g id="node2" class="node">
<title>Node2</title>
<g id="a_node2"><a xlink:href="gnugym__snrdebug__ff_8h_source.html" target="_top" xlink:title=" ">
<polygon fill="white" stroke="black" points="122,-112.5 122,-142.5 267,-142.5 267,-112.5 122,-112.5"/>
<text text-anchor="start" x="130" y="-130.5" font-family="Helvetica,sans-Serif" font-size="10.00">gnuradio/gnugym/gnugym</text>
<text text-anchor="middle" x="194.5" y="-119.5" font-family="Helvetica,sans-Serif" font-size="10.00">_snrdebug_ff.h</text>
</a>
</g>
</g>
<!-- Node1&#45;&gt;Node2 -->
<g id="edge1" class="edge">
<title>Node1&#45;&gt;Node2</title>
<path fill="none" stroke="midnightblue" d="M248.53,-179.4C239.31,-170.71 227.31,-159.4 216.96,-149.66"/>
<polygon fill="midnightblue" stroke="midnightblue" points="219.12,-146.89 209.44,-142.58 214.32,-151.98 219.12,-146.89"/>
</g>
<!-- Node6 -->
<g id="node6" class="node">
<title>Node6</title>
<g id="a_node6"><a xlink:href="base_8h.html" target="_top" xlink:title=" ">
<polygon fill="white" stroke="black" points="285,-118 285,-137 382,-137 382,-118 285,-118"/>
<text text-anchor="middle" x="333.5" y="-125" font-family="Helvetica,sans-Serif" font-size="10.00">equalizer/base.h</text>
</a>
</g>
</g>
<!-- Node1&#45;&gt;Node6 -->
<g id="edge5" class="edge">
<title>Node1&#45;&gt;Node6</title>
<path fill="none" stroke="midnightblue" d="M278.69,-179.4C289.82,-169.06 304.94,-155.02 316.47,-144.31"/>
<polygon fill="midnightblue" stroke="midnightblue" points="319.19,-146.56 324.14,-137.19 314.43,-141.43 319.19,-146.56"/>
</g>
<!-- Node3 -->
<g id="node3" class="node">
<title>Node3</title>
<g id="a_node3"><a xlink:href="api_8h.html" target="_top" xlink:title=" ">
<polygon fill="white" stroke="black" points="0,-56.5 0,-75.5 129,-75.5 129,-56.5 0,-56.5"/>
<text text-anchor="middle" x="64.5" y="-63.5" font-family="Helvetica,sans-Serif" font-size="10.00">gnuradio/gnugym/api.h</text>
</a>
</g>
</g>
<!-- Node2&#45;&gt;Node3 -->
<g id="edge2" class="edge">
<title>Node2&#45;&gt;Node3</title>
<path fill="none" stroke="midnightblue" d="M163.69,-112.4C142.17,-102.55 113.66,-89.5 92.73,-79.92"/>
<polygon fill="midnightblue" stroke="midnightblue" points="93.97,-76.64 83.42,-75.66 91.05,-83 93.97,-76.64"/>
</g>
<!-- Node5 -->
<g id="node5" class="node">
<title>Node5</title>
<g id="a_node5"><a xlink:title=" ">
<polygon fill="white" stroke="#bfbfbf" points="147.5,-56.5 147.5,-75.5 245.5,-75.5 245.5,-56.5 147.5,-56.5"/>
<text text-anchor="middle" x="196.5" y="-63.5" font-family="Helvetica,sans-Serif" font-size="10.00">gnuradio/block.h</text>
</a>
</g>
</g>
<!-- Node2&#45;&gt;Node5 -->
<g id="edge4" class="edge">
<title>Node2&#45;&gt;Node5</title>
<path fill="none" stroke="midnightblue" d="M194.97,-112.4C195.24,-104.47 195.58,-94.46 195.87,-85.86"/>
<polygon fill="midnightblue" stroke="midnightblue" points="199.37,-85.77 196.21,-75.66 192.37,-85.53 199.37,-85.77"/>
</g>
<!-- Node4 -->
<g id="node4" class="node">
<title>Node4</title>
<g id="a_node4"><a xlink:title=" ">
<polygon fill="white" stroke="#bfbfbf" points="5,-0.5 5,-19.5 124,-19.5 124,-0.5 5,-0.5"/>
<text text-anchor="middle" x="64.5" y="-7.5" font-family="Helvetica,sans-Serif" font-size="10.00">gnuradio/attributes.h</text>
</a>
</g>
</g>
<!-- Node3&#45;&gt;Node4 -->
<g id="edge3" class="edge">
<title>Node3&#45;&gt;Node4</title>
<path fill="none" stroke="midnightblue" d="M64.5,-56.08C64.5,-49.01 64.5,-38.86 64.5,-29.99"/>
<polygon fill="midnightblue" stroke="midnightblue" points="68,-29.75 64.5,-19.75 61,-29.75 68,-29.75"/>
</g>
<!-- Node7 -->
<g id="node7" class="node">
<title>Node7</title>
<g id="a_node7"><a xlink:title=" ">
<polygon fill="white" stroke="#bfbfbf" points="267.5,-56.5 267.5,-75.5 395.5,-75.5 395.5,-56.5 267.5,-56.5"/>
<text text-anchor="middle" x="331.5" y="-63.5" font-family="Helvetica,sans-Serif" font-size="10.00">gnuradio/gr_complex.h</text>
</a>
</g>
</g>
<!-- Node6&#45;&gt;Node7 -->
<g id="edge6" class="edge">
<title>Node6&#45;&gt;Node7</title>
<path fill="none" stroke="midnightblue" d="M333.21,-117.98C332.93,-109.58 332.49,-96.48 332.13,-85.66"/>
<polygon fill="midnightblue" stroke="midnightblue" points="335.62,-85.39 331.79,-75.51 328.62,-85.62 335.62,-85.39"/>
</g>
<!-- Node8 -->
<g id="node8" class="node">
<title>Node8</title>
<g id="a_node8"><a xlink:title=" ">
<polygon fill="white" stroke="#bfbfbf" points="413.5,-56.5 413.5,-75.5 581.5,-75.5 581.5,-56.5 413.5,-56.5"/>
<text text-anchor="middle" x="497.5" y="-63.5" font-family="Helvetica,sans-Serif" font-size="10.00">gnuradio/digital/constellation.h</text>
</a>
</g>
</g>
<!-- Node6&#45;&gt;Node8 -->
<g id="edge7" class="edge">
<title>Node6&#45;&gt;Node8</title>
<path fill="none" stroke="midnightblue" d="M357,-117.98C385.13,-107.77 432.43,-90.61 464.29,-79.05"/>
<polygon fill="midnightblue" stroke="midnightblue" points="465.84,-82.21 474.05,-75.51 463.45,-75.63 465.84,-82.21"/>
</g>
</g>
</svg>
