<?xml version="1.0" encoding="UTF-8" standalone="no"?>
<!DOCTYPE svg PUBLIC "-//W3C//DTD SVG 1.1//EN"
 "http://www.w3.org/Graphics/SVG/1.1/DTD/svg11.dtd">
<!-- Generated by graphviz version 2.43.0 (0)
 -->
<!-- Title: sta.h Pages: 1 -->
<svg width="322pt" height="140pt"
 viewBox="0.00 0.00 322.00 140.00" xmlns="http://www.w3.org/2000/svg" xmlns:xlink="http://www.w3.org/1999/xlink">
<g id="graph0" class="graph" transform="scale(1 1) rotate(0) translate(4 136)">
<title>sta.h</title>
<polygon fill="white" stroke="transparent" points="-4,4 -4,-136 318,-136 318,4 -4,4"/>
<!-- Node1 -->
<g id="node1" class="node">
<title>Node1</title>
<g id="a_node1"><a xlink:title=" ">
<polygon fill="#bfbfbf" stroke="black" points="159.5,-112.5 159.5,-131.5 200.5,-131.5 200.5,-112.5 159.5,-112.5"/>
<text text-anchor="middle" x="180" y="-119.5" font-family="Helvetica,sans-Serif" font-size="10.00">sta.h</text>
</a>
</g>
</g>
<!-- Node2 -->
<g id="node2" class="node">
<title>Node2</title>
<g id="a_node2"><a xlink:href="base_8h.html" target="_top" xlink:title=" ">
<polygon fill="white" stroke="black" points="122.5,-56.5 122.5,-75.5 171.5,-75.5 171.5,-56.5 122.5,-56.5"/>
<text text-anchor="middle" x="147" y="-63.5" font-family="Helvetica,sans-Serif" font-size="10.00">base.h</text>
</a>
</g>
</g>
<!-- Node1&#45;&gt;Node2 -->
<g id="edge1" class="edge">
<title>Node1&#45;&gt;Node2</title>
<path fill="none" stroke="midnightblue" d="M174.55,-112.08C169.99,-104.61 163.33,-93.72 157.71,-84.52"/>
<polygon fill="midnightblue" stroke="midnightblue" points="160.55,-82.46 152.35,-75.75 154.58,-86.11 160.55,-82.46"/>
</g>
<!-- Node5 -->
<g id="node5" class="node">
<title>Node5</title>
<g id="a_node5"><a xlink:title=" ">
<polygon fill="white" stroke="#bfbfbf" points="189.5,-56.5 189.5,-75.5 236.5,-75.5 236.5,-56.5 189.5,-56.5"/>
<text text-anchor="middle" x="213" y="-63.5" font-family="Helvetica,sans-Serif" font-size="10.00">vector</text>
</a>
</g>
</g>
<!-- Node1&#45;&gt;Node5 -->
<g id="edge4" class="edge">
<title>Node1&#45;&gt;Node5</title>
<path fill="none" stroke="midnightblue" d="M185.45,-112.08C190.01,-104.61 196.67,-93.72 202.29,-84.52"/>
<polygon fill="midnightblue" stroke="midnightblue" points="205.42,-86.11 207.65,-75.75 199.45,-82.46 205.42,-86.11"/>
</g>
<!-- Node3 -->
<g id="node3" class="node">
<title>Node3</title>
<g id="a_node3"><a xlink:title=" ">
<polygon fill="white" stroke="#bfbfbf" points="0,-0.5 0,-19.5 128,-19.5 128,-0.5 0,-0.5"/>
<text text-anchor="middle" x="64" y="-7.5" font-family="Helvetica,sans-Serif" font-size="10.00">gnuradio/gr_complex.h</text>
</a>
</g>
</g>
<!-- Node2&#45;&gt;Node3 -->
<g id="edge2" class="edge">
<title>Node2&#45;&gt;Node3</title>
<path fill="none" stroke="midnightblue" d="M133.66,-56.32C120.84,-47.98 101.22,-35.21 86.06,-25.35"/>
<polygon fill="midnightblue" stroke="midnightblue" points="87.59,-22.17 77.3,-19.65 83.78,-28.04 87.59,-22.17"/>
</g>
<!-- Node4 -->
<g id="node4" class="node">
<title>Node4</title>
<g id="a_node4"><a xlink:title=" ">
<polygon fill="white" stroke="#bfbfbf" points="146,-0.5 146,-19.5 314,-19.5 314,-0.5 146,-0.5"/>
<text text-anchor="middle" x="230" y="-7.5" font-family="Helvetica,sans-Serif" font-size="10.00">gnuradio/digital/constellation.h</text>
</a>
</g>
</g>
<!-- Node2&#45;&gt;Node4 -->
<g id="edge3" class="edge">
<title>Node2&#45;&gt;Node4</title>
<path fill="none" stroke="midnightblue" d="M160.34,-56.32C173.16,-47.98 192.78,-35.21 207.94,-25.35"/>
<polygon fill="midnightblue" stroke="midnightblue" points="210.22,-28.04 216.7,-19.65 206.41,-22.17 210.22,-28.04"/>
</g>
</g>
</svg>
